<svg width="16" height="16" viewBox="0 0 16 16" fill="none" xmlns="http://www.w3.org/2000/svg">
<path d="M8 16C3.58698 16 0 12.413 0 8C0 3.58698 3.58698 0 8 0C12.413 0 16 3.58698 16 8C16 12.413 12.413 16 8 16ZM8 1.11628C4.20465 1.11628 1.11628 4.20465 1.11628 8C1.11628 11.7953 4.20465 14.8837 8 14.8837C11.7953 14.8837 14.8837 11.7953 14.8837 8C14.8837 4.20465 11.7953 1.11628 8 1.11628Z" fill="#808080"/>
<path d="M10.7606 10.9245C10.6638 10.9245 10.5671 10.9022 10.4778 10.8427L8.17079 9.46592C7.59777 9.12359 7.17358 8.37196 7.17358 7.70964V4.65848C7.17358 4.35337 7.42661 4.10034 7.73172 4.10034C8.03684 4.10034 8.28986 4.35337 8.28986 4.65848V7.70964C8.28986 7.97754 8.51312 8.37196 8.74382 8.50592L11.0508 9.88266C11.3187 10.0389 11.4006 10.3813 11.2443 10.6492C11.1327 10.8278 10.9466 10.9245 10.7606 10.9245Z" fill="#808080"/>
</svg>
